# xmcd
#
# Track frame offsets: 
#        150
#        20983
#        36905
#        54222
#        72925
#        89678
#        110615
#        126620
#        147216
#        165482
#
# Disc length: 2440 seconds
#
# Revision: 1
# Processed by: cddbd v1.5.2PL0 Copyright (c) Steve Scherf et al.
# Submitted via: ExactAudioCopyFreeDBPlugin 1.0
#
DISCID=9309860a
DTITLE=Dee Edwards - Two Hearts Are Better Than One
DYEAR=1980
DGENRE=Soul
TTITLE0=Put Your Love On The Line
TTITLE1=Mr. Miracle Man
TTITLE2=Two Hearts Are Better Than One
TTITLE3=Why Am I The Last To Know
TTITLE4=Don't Walk Away
TTITLE5=I Am Alone
TTITLE6=Selflessly
TTITLE7=Check It Out
TTITLE8=Fools Of A Feather
TTITLE9=Baby,This Time
EXTD=
EXTT0=
EXTT1=
EXTT2=
EXTT3=
EXTT4=
EXTT5=
EXTT6=
EXTT7=
EXTT8=
EXTT9=
PLAYORDER=
